<svg width="938" height="264" fill="none" xmlns="http://www.w3.org/2000/svg"><path fill-rule="evenodd" clip-rule="evenodd" d="M904.5 162.659c0 .322-.224.582-.5.582-7.765 0-11.904 2-18.521 5.197l-1.6.771c-.922.442-1.972.169-3.021-.458-1.059-.633-2.216-1.684-3.421-2.999-2.415-2.635-5.118-6.434-7.756-10.411-1.769-2.666-3.521-5.43-5.143-7.991-.798-1.258-1.564-2.468-2.286-3.592-1.099-1.711-2.094-3.226-2.947-4.429-.862-1.216-1.549-2.075-2.035-2.507-12.966-11.555-31.086-2.146-34.189 14.128-.764 4.009-1.589 7.021-2.487 9.229-.897 2.205-1.885 3.656-2.998 4.48-2.273 1.683-4.797.583-7.365-1.024-.766-.479-1.545-1.009-2.342-1.551-1.964-1.335-4.042-2.749-6.323-3.681-3.16-1.291-6.631-1.614-10.506.644-1.183.689-2.849 2.334-4.717 4.478-1.853 2.127-3.858 4.69-5.713 7.157a377.206 377.206 0 0 0-4.787 6.544l-.005.007c-.619.861-1.126 1.566-1.48 2.044-.176.237-.32.427-.423.553a1.826 1.826 0 0 1-.154.17l-.001.002c-.017.016-.079.076-.166.114a.446.446 0 0 1-.362.001c-.237-.105-.308-.351-.322-.479-.619-5.77-3.397-11.992-7.309-16.538-3.915-4.548-8.888-7.335-13.881-6.44-8.079 1.448-12.745 7.13-16.634 13.966-1.244 2.187-2.395 4.465-3.553 6.758a276.268 276.268 0 0 1-2.016 3.941c-1.875 3.571-3.889 7.028-6.375 9.924-.307.359-.65.588-1.026.671-.374.082-.735.008-1.065-.147-.637-.301-1.235-.943-1.765-1.594-.271-.334-.54-.689-.798-1.031l-.002-.003c-.26-.344-.508-.673-.751-.97a7.079 7.079 0 0 0-.682-.746c-.215-.196-.39-.306-.527-.352-1.876-.625-4.395-.768-6.949-.606-2.547.161-5.084.623-6.978 1.174-3.039.886-6.897 3.215-11.205 6.183-2.338 1.612-4.77 3.383-7.257 5.194-2.108 1.535-4.255 3.099-6.419 4.619-4.683 3.291-9.379 6.327-13.665 8.218-4.267 1.882-8.232 2.676-11.399 1.316-2.421-1.039-4.558-2.15-6.569-3.225l-1.048-.563c-1.627-.875-3.184-1.712-4.775-2.462-3.841-1.811-7.862-3.106-13.389-3.106-2.541 0-3.975.632-4.926 1.416-.482.396-.858.846-1.201 1.314-.15.204-.29.408-.433.615l-.067.097c-.164.237-.333.478-.51.708-.357.46-.764.895-1.299 1.207-.538.314-1.174.487-1.969.479-1.563-.016-3.784-.732-7.207-2.505-5.114-2.649-9.705-6.89-14.24-11.29-.53-.514-1.06-1.03-1.589-1.547-4.017-3.919-8.037-7.84-12.433-10.864-1.438-.989-3.981-3.148-7.193-5.876-1.119-.95-2.32-1.97-3.583-3.033-4.911-4.132-10.812-8.958-16.715-13.079-5.913-4.127-11.785-7.515-16.644-8.807-2.428-.647-4.56-.757-6.302-.215-1.72.536-3.083 1.716-3.998 3.73-2.757 6.069-2.562 12.751-2.362 19.576.016.533.031 1.066.045 1.601.195 7.317.124 14.729-4.178 21.175-5.992 8.978-10.212 20.084-10.212 31.766 0 2.97-.742 11.77-1.858 19.449-.558 3.839-1.215 7.436-1.929 9.899-.352 1.217-.738 2.227-1.167 2.843-.215.308-.486.585-.825.684-.374.109-.722-.028-1.006-.304-2.723-2.645-7.261-3.954-12.749-4.601-4.695-.554-9.995-.617-15.292-.68-.871-.01-1.741-.02-2.609-.033-6.128-.088-12.124-.285-16.941-1.383-4.787-1.091-8.597-3.113-10.094-7.039-.931-2.439-1.319-4.797-1.588-6.939a128.73 128.73 0 0 1-.171-1.431c-.183-1.578-.346-2.985-.682-4.242-.422-1.584-1.105-2.864-2.427-3.814-1.346-.968-3.401-1.629-6.631-1.827-4.576-.281-7.677-1.228-9.78-2.837-2.129-1.63-3.177-3.892-3.733-6.624-.48-2.355-.602-5.11-.736-8.143l-.06-1.332c-.168-3.586-.424-7.583-1.304-11.945-.142-.702-.287-1.743-.451-2.924l-.15-1.066c-.231-1.631-.509-3.438-.875-5.078-.37-1.656-.816-3.074-1.36-3.969-.269-.443-.537-.714-.795-.845-.242-.122-.516-.141-.86.014-8.319 3.77-16.874 6.409-25.455 9.055l-.552.171c-6.779 2.091-11.434 3.222-14.719 3.39-3.302.169-5.328-.633-6.722-2.534-.679-.927-1.184-2.082-1.624-3.426-.441-1.341-.83-2.908-1.262-4.669l-.054-.221c-.859-3.493-1.92-7.813-3.929-12.963-1.737-4.455-4.146-7.508-6.896-10.242-1.231-1.224-2.526-2.38-3.863-3.573l-.484-.433c-1.505-1.345-3.054-2.75-4.593-4.344-1.117-1.157-2.879-2.37-4.951-3.657-.909-.565-1.893-1.153-2.9-1.755a181.447 181.447 0 0 1-3.706-2.255c-2.211-1.394-4.327-2.866-5.938-4.427-1.596-1.547-2.787-3.267-2.98-5.18-.389-3.845-1.694-5.617-3.367-6.257-1.745-.668-4.06-.18-6.579.992-5.011 2.331-10.401 7.153-12.62 9.221a1465.862 1465.862 0 0 1-8.023 7.408c-19.344 17.774-36.781 33.795-49.565 59.867l-.096.195c-1.172 2.393-5.242 10.702-9.186 16.054-1.016 1.38-2.039 2.583-3.016 3.442-.961.845-1.951 1.421-2.887 1.398-1.002-.025-1.797-.726-2.343-2.022-.534-1.268-.864-3.17-.977-5.802-.339-7.899-2.832-16.344-6.054-24.545-2.517-6.406-5.463-12.624-8.148-18.294a824.5 824.5 0 0 1-2.181-4.627c-13.115-28.143-27.655-57.139-50.464-75.695a446.303 446.303 0 0 0-4.476-3.583c-3.574-2.834-6.172-4.894-8.51-7.391-3.237-3.459-5.98-7.752-10.21-16.07l-.941-1.855c-4.316-8.513-8.927-17.61-14.613-23.884-3.042-3.357-6.37-5.878-10.097-7.07-3.721-1.189-7.876-1.065-12.597.936-1.645.697-3.404 2.111-5.195 3.984-1.785 1.868-3.575 4.163-5.281 6.584-2.785 3.95-5.326 8.201-7.256 11.431-.437.732-.843 1.411-1.214 2.023C63.495 88.254 45.833 106 27.963 123.953c-2.878 2.891-5.761 5.788-8.634 8.712-.208.212-.524.187-.706-.056a.652.652 0 0 1 .048-.822c2.882-2.933 5.77-5.835 8.65-8.729 17.875-17.96 35.434-35.602 49.142-58.233.365-.603.768-1.276 1.202-2.003 1.93-3.229 4.5-7.528 7.312-11.519 1.724-2.446 3.55-4.79 5.386-6.711 1.832-1.916 3.703-3.441 5.52-4.212 4.899-2.076 9.266-2.223 13.204-.964 3.931 1.256 7.399 3.902 10.52 7.347 5.794 6.392 10.474 15.628 14.77 24.103.321.634.64 1.264.958 1.888 4.214 8.287 6.897 12.463 10.025 15.804 2.281 2.437 4.795 4.43 8.338 7.24a439.061 439.061 0 0 1 4.544 3.639c23.027 18.733 37.663 47.968 50.771 76.094.69 1.479 1.417 3.014 2.166 4.596 2.688 5.675 5.658 11.946 8.193 18.396 3.24 8.248 5.795 16.852 6.144 24.972.11 2.578.432 4.291.876 5.347.432 1.027.941 1.357 1.467 1.37.591.015 1.353-.363 2.263-1.163.896-.788 1.865-1.922 2.86-3.271 3.878-5.263 7.908-13.49 9.081-15.884l.09-.184c12.887-26.282 30.484-42.447 49.82-60.209 2.641-2.426 5.314-4.882 8.012-7.398 2.216-2.066 7.71-6.991 12.875-9.393 2.569-1.195 5.166-1.819 7.261-1.017 2.168.829 3.632 3.109 4.048 7.228.146 1.451 1.08 2.921 2.626 4.419 1.532 1.484 3.576 2.912 5.775 4.299 1.219.769 2.448 1.503 3.658 2.226 1 .597 1.986 1.186 2.943 1.781 2.068 1.285 3.928 2.554 5.145 3.814 1.509 1.564 3.034 2.946 4.537 4.291l.485.433c1.334 1.191 2.65 2.365 3.902 3.611 2.817 2.801 5.34 5.984 7.158 10.645 2.04 5.23 3.118 9.619 3.976 13.115l.057.231c.435 1.772.813 3.288 1.235 4.574.421 1.285.876 2.301 1.45 3.085 1.113 1.518 2.772 2.288 5.919 2.127 3.164-.162 7.723-1.26 14.506-3.353l.53-.163c8.597-2.652 17.105-5.276 25.371-9.022.568-.257 1.116-.251 1.619.003.486.245.885.699 1.214 1.241.655 1.076 1.136 2.669 1.511 4.348.379 1.695.663 3.546.895 5.181l.155 1.104c.163 1.171.299 2.151.432 2.81.902 4.466 1.161 8.547 1.329 12.148l.061 1.34c.136 3.051.253 5.686.71 7.93.515 2.53 1.451 4.496 3.309 5.919 1.885 1.442 4.776 2.371 9.284 2.647 3.302.203 5.551.883 7.103 1.999 1.575 1.133 2.381 2.677 2.857 4.46.363 1.36.541 2.898.726 4.495.052.448.104.9.161 1.355.265 2.107.637 4.34 1.512 6.634 1.282 3.36 4.63 5.288 9.373 6.369 4.714 1.075 10.621 1.274 16.761 1.362.863.012 1.731.022 2.6.033 5.293.062 10.645.125 15.39.685 5.503.65 10.314 1.977 13.289 4.866.093.091.122.069.122.068.036-.01.137-.065.292-.287.308-.444.648-1.281.996-2.482.687-2.372 1.333-5.893 1.89-9.721 1.112-7.654 1.844-16.38 1.844-19.254 0-12.008 4.334-23.358 10.422-32.481 4.06-6.082 4.164-13.095 3.969-20.424l-.047-1.649c-.201-6.763-.409-13.752 2.479-20.11 1.05-2.31 2.644-3.693 4.624-4.31 1.96-.61 4.272-.464 6.782.204 5.02 1.336 11.004 4.805 16.935 8.945 5.942 4.147 11.871 8.997 16.787 13.133 1.291 1.087 2.51 2.121 3.639 3.08 3.189 2.708 5.667 4.812 7.06 5.771 4.472 3.075 8.559 7.063 12.568 10.975.53.516 1.058 1.032 1.586 1.543 4.539 4.404 9.034 8.546 14.006 11.121 3.403 1.762 5.464 2.391 6.81 2.405.659.006 1.135-.136 1.512-.356.38-.222.691-.542 1.004-.946.157-.203.31-.422.474-.658.162-.234.334-.486.519-.738.372-.508.809-1.036 1.384-1.509 1.161-.956 2.812-1.63 5.503-1.63 5.683 0 9.833 1.338 13.764 3.192 1.616.762 3.198 1.613 4.827 2.488l1.038.558c2.005 1.072 4.114 2.167 6.498 3.191 2.813 1.208 6.484.546 10.699-1.313 4.197-1.851 8.828-4.841 13.503-8.126 2.123-1.491 4.268-3.053 6.382-4.592 2.509-1.827 4.973-3.621 7.301-5.226 4.303-2.965 8.275-5.379 11.471-6.31 1.96-.571 4.561-1.042 7.167-1.207 2.597-.165 5.245-.028 7.277.648.313.104.605.314.869.555.267.244.533.544.791.861.256.314.515.657.77.995l.009.011c.26.345.516.684.773.999.526.646.996 1.118 1.414 1.315.198.093.362.114.505.083.142-.032.31-.124.504-.35 2.4-2.797 4.365-6.16 6.229-9.708a285.707 285.707 0 0 0 1.985-3.881c1.169-2.315 2.347-4.646 3.603-6.854 3.955-6.951 8.83-12.953 17.316-14.474 5.419-.972 10.692 2.066 14.739 6.767 3.782 4.394 6.559 10.315 7.438 16.018.335-.457.777-1.072 1.306-1.808l.007-.009c1.239-1.723 2.941-4.091 4.8-6.563 1.861-2.475 3.885-5.062 5.763-7.218 1.863-2.139 3.63-3.909 4.971-4.69 4.171-2.43 7.932-2.072 11.285-.702 2.378.972 4.591 2.477 6.583 3.832.776.527 1.519 1.032 2.224 1.474 2.6 1.627 4.617 2.354 6.355 1.067.892-.661 1.776-1.894 2.631-3.996.853-2.098 1.658-5.016 2.415-8.983 3.251-17.051 22.188-26.906 35.772-14.801.587.523 1.339 1.477 2.199 2.691.869 1.226 1.876 2.759 2.976 4.472.73 1.137 1.5 2.352 2.3 3.614 1.619 2.555 3.357 5.299 5.12 7.956 2.634 3.969 5.296 7.705 7.648 10.272 1.178 1.285 2.256 2.252 3.195 2.814.95.567 1.664.666 2.183.416.554-.265 1.091-.525 1.613-.777 6.618-3.198 10.921-5.278 18.889-5.278.276 0 .5.261.5.583Z" fill="#fff"/><path d="M74.087 10.835h2.788c1.69 0 2.453-.98 2.453-2.28 0-1.312-.788-2.053-1.509-2.098v-.083c.668-.199 1.225-.728 1.225-1.788 0-1.254-.745-2.226-2.294-2.226h-2.663v8.475Zm1.097-1.096V7.024h1.623c.88 0 1.431.662 1.431 1.469 0 .712-.415 1.246-1.47 1.246h-1.584Zm0-3.713V3.448h1.499c.87 0 1.285.534 1.285 1.238 0 .819-.575 1.34-1.314 1.34h-1.47ZM82.13 10.835h4.602v-1.1h-3.505V7.14h3.225V6.043h-3.225V3.461h3.462V2.36h-4.56v8.475ZM89.105 10.835h.312c1.655 0 2.053-1.432 2.149-4.155l.113-3.236h2.483v7.391h1.083V2.36h-4.599l-.124 3.981c-.078 2.454-.334 3.352-1.204 3.377l-.213.008v1.11ZM98.343 2.36v8.475h1.008l3.697-6.216h.068v6.216h1.097V2.36h-1.016l-3.7 6.224h-.068V2.36h-1.086ZM111.621 10.835h1.339l-3.001-4.643 3.019-3.832h-1.361l-2.83 3.58h-.376V2.36h-1.098v8.475h1.098V7.036h.753l2.457 3.8ZM115.571 2.36v8.475h1.009l3.697-6.216h.067v6.216h1.097V2.36h-1.015l-3.701 6.224h-.067V2.36h-1.087ZM124.542 2.36v8.475h1.009l3.696-6.216h.068v6.216h1.097V2.36h-1.016l-3.7 6.224h-.067V2.36h-1.087Zm3.633-2.152c0 .418-.199.786-.696.786-.504 0-.693-.372-.693-.786h-.87c0 .931.608 1.573 1.563 1.573.962 0 1.569-.642 1.569-1.573h-.873ZM69.538 24.82h1.097v-3.696h3.626v3.695h1.1v-8.475h-1.1v3.683h-3.626v-3.683h-1.097v8.475ZM84.777 20.582c0-2.71-1.392-4.354-3.274-4.354-1.889 0-3.277 1.643-3.277 4.354 0 2.706 1.388 4.353 3.277 4.353 1.882 0 3.274-1.643 3.274-4.353Zm-1.086 0c0 2.065-.938 3.186-2.188 3.186-1.253 0-2.187-1.121-2.187-3.186s.934-3.187 2.187-3.187c1.25 0 2.188 1.122 2.188 3.187ZM87.645 24.82h2.788c1.69 0 2.454-.981 2.454-2.28 0-1.313-.788-2.053-1.51-2.099v-.083c.668-.198 1.226-.728 1.226-1.788 0-1.253-.746-2.226-2.294-2.226h-2.663v8.475Zm1.098-1.097v-2.715h1.623c.88 0 1.43.662 1.43 1.47 0 .71-.415 1.245-1.47 1.245h-1.583Zm0-3.712v-2.578h1.498c.87 0 1.286.533 1.286 1.237 0 .82-.575 1.34-1.314 1.34h-1.47ZM100.223 16.344h-4.534v8.475h1.097v-7.374h3.437v-1.1ZM108.975 20.582c0-2.71-1.392-4.354-3.274-4.354-1.89 0-3.278 1.643-3.278 4.354 0 2.706 1.388 4.353 3.278 4.353 1.882 0 3.274-1.643 3.274-4.353Zm-1.087 0c0 2.065-.937 3.186-2.187 3.186-1.254 0-2.188-1.121-2.188-3.186s.934-3.187 2.188-3.187c1.25 0 2.187 1.122 2.187 3.187ZM111.843 24.82h1.097v-2.98h1.492c1.686 0 2.521-1.188 2.521-2.752 0-1.56-.828-2.744-2.518-2.744h-2.592v8.475Zm1.097-4.064V17.44h1.378c1.087 0 1.53.687 1.53 1.647s-.443 1.668-1.516 1.668h-1.392ZM126.057 20.582c0-2.71-1.392-4.354-3.274-4.354-1.89 0-3.278 1.643-3.278 4.354 0 2.706 1.388 4.353 3.278 4.353 1.882 0 3.274-1.643 3.274-4.353Zm-1.087 0c0 2.065-.937 3.186-2.187 3.186-1.254 0-2.188-1.121-2.188-3.186s.934-3.187 2.188-3.187c1.25 0 2.187 1.122 2.187 3.187ZM128.374 26.868h1.052v-2.049h4.882v2.036h1.051v-3.12h-.823v-7.39h-4.485l-.171 3.579c-.11 2.359-.54 3.331-1.026 3.811h-.48v3.133Zm1.772-3.133c.416-.774.696-2.02.785-3.811l.114-2.48h2.439v6.291h-3.338ZM5.88 145.696H.27v8.475h1.094v-7.383h3.423v7.383h1.094v-8.475ZM15.1 148.452c-.25-1.813-1.467-2.872-3.005-2.872-1.882 0-3.27 1.643-3.27 4.353 0 2.711 1.38 4.354 3.27 4.354 1.598 0 2.766-1.167 3.004-2.843l-1.108-.004c-.188 1.084-.97 1.68-1.889 1.68-1.246 0-2.187-1.113-2.187-3.187 0-2.056.937-3.186 2.19-3.186.927 0 1.705.608 1.886 1.705H15.1ZM22.22 154.171h1.338l-3-4.643 3.018-3.832h-1.36l-2.83 3.579h-.377v-3.579h-1.097v8.475h1.098v-3.799h.752l2.458 3.799ZM32.126 149.933c0-2.71-1.392-4.353-3.274-4.353-1.89 0-3.278 1.643-3.278 4.353 0 2.707 1.389 4.354 3.278 4.354 1.882 0 3.274-1.643 3.274-4.354Zm-1.086 0c0 2.065-.938 3.187-2.188 3.187-1.253 0-2.187-1.122-2.187-3.187 0-2.065.934-3.186 2.187-3.186 1.25 0 2.188 1.121 2.188 3.186ZM34.994 154.171h2.788c1.69 0 2.454-.981 2.454-2.28 0-1.312-.789-2.053-1.51-2.098v-.083c.668-.199 1.226-.728 1.226-1.788 0-1.254-.746-2.226-2.294-2.226h-2.664v8.475Zm1.098-1.097v-2.714h1.622c.881 0 1.431.662 1.431 1.469 0 .711-.415 1.245-1.47 1.245h-1.583Zm0-3.712v-2.578h1.498c.87 0 1.286.534 1.286 1.237 0 .82-.576 1.341-1.314 1.341h-1.47ZM163.482 178.259h2.266v7.375h1.093v-7.375h2.269v-1.101h-5.628v1.101ZM171.854 185.634h2.788c1.69 0 2.454-.981 2.454-2.281 0-1.311-.789-2.052-1.509-2.098v-.082c.667-.199 1.225-.729 1.225-1.788 0-1.254-.746-2.227-2.294-2.227h-2.664v8.476Zm1.098-1.097v-2.715h1.622c.881 0 1.432.662 1.432 1.469 0 .712-.416 1.246-1.471 1.246h-1.583Zm0-3.712v-2.578h1.498c.87 0 1.286.534 1.286 1.237 0 .82-.576 1.341-1.314 1.341h-1.47ZM179.897 185.634h4.603v-1.101h-3.505v-2.595h3.224v-1.096h-3.224v-2.583h3.462v-1.101h-4.56v8.476ZM187.423 185.634h1.097v-2.98h1.491c1.687 0 2.522-1.188 2.522-2.752 0-1.56-.828-2.744-2.518-2.744h-2.592v8.476Zm1.097-4.064v-3.315h1.378c1.086 0 1.53.687 1.53 1.647s-.444 1.668-1.516 1.668h-1.392ZM196.427 180.577v-3.419h-1.101v8.476h2.724c1.619 0 2.546-1.051 2.543-2.57.003-1.515-.924-2.487-2.543-2.487h-1.623Zm0 1.076h1.623c.941 0 1.459.629 1.459 1.394 0 .787-.518 1.511-1.459 1.511h-1.623v-2.905ZM261.651 211.272v-8.475h-2.592c-1.687 0-2.518 1.096-2.518 2.656 0 1.138.444 2.003 1.335 2.388l-1.612 3.431h1.25l1.477-3.207h1.563v3.207h1.097Zm-1.097-4.308h-1.392c-1.069 0-1.516-.555-1.516-1.511 0-.96.447-1.56 1.53-1.56h1.378v3.071ZM264.746 211.272h1.097v-2.98h1.491c1.687 0 2.522-1.187 2.522-2.752 0-1.56-.828-2.743-2.518-2.743h-2.592v8.475Zm1.097-4.064v-3.315h1.378c1.086 0 1.53.687 1.53 1.647s-.444 1.668-1.516 1.668h-1.392ZM278.96 207.034c0-2.71-1.392-4.353-3.274-4.353-1.89 0-3.278 1.643-3.278 4.353 0 2.707 1.388 4.354 3.278 4.354 1.882 0 3.274-1.643 3.274-4.354Zm-1.087 0c0 2.065-.937 3.187-2.187 3.187-1.254 0-2.188-1.122-2.188-3.187 0-2.065.934-3.186 2.188-3.186 1.25 0 2.187 1.121 2.187 3.186ZM287.868 205.553c-.248-1.813-1.466-2.872-3.004-2.872-1.882 0-3.271 1.643-3.271 4.353 0 2.711 1.382 4.354 3.271 4.354 1.598 0 2.766-1.167 3.004-2.843l-1.108-.004c-.188 1.084-.969 1.68-1.889 1.68-1.246 0-2.187-1.114-2.187-3.187 0-2.057.937-3.186 2.191-3.186.926 0 1.704.608 1.885 1.705h1.108ZM290.131 211.272h.312c1.655 0 2.053-1.432 2.149-4.155l.113-3.236h2.483v7.391h1.083v-8.475h-4.599l-.124 3.981c-.078 2.454-.334 3.352-1.204 3.376l-.213.009v1.109ZM299.983 211.272l.668-2.243h2.841l.664 2.243h1.164l-2.617-8.475h-1.267l-2.618 8.475h1.165Zm.987-3.319 1.073-3.617h.057l1.072 3.617h-2.202ZM307.871 211.272h2.787c1.691 0 2.454-.981 2.454-2.28 0-1.312-.788-2.053-1.509-2.099v-.082c.668-.199 1.225-.729 1.225-1.788 0-1.254-.746-2.226-2.294-2.226h-2.663v8.475Zm1.097-1.097v-2.715h1.623c.881 0 1.431.663 1.431 1.47 0 .711-.416 1.245-1.47 1.245h-1.584Zm0-3.712v-2.578h1.499c.87 0 1.285.534 1.285 1.237 0 .82-.575 1.341-1.314 1.341h-1.47ZM315.363 211.272h.313c1.655 0 2.052-1.432 2.148-4.155l.114-3.236h2.482v7.391h1.083v-8.475h-4.599l-.124 3.981c-.078 2.454-.334 3.352-1.204 3.376l-.213.009v1.109ZM325.709 206.215v-3.418h-1.101v8.475h2.724c1.619 0 2.546-1.051 2.543-2.57.003-1.515-.924-2.487-2.543-2.487h-1.623Zm0 1.076h1.623c.941 0 1.46.629 1.46 1.394 0 .787-.519 1.511-1.46 1.511h-1.623v-2.905ZM339.802 132.876v8.475h1.044v-6.137h.067l2.145 6.125h.867l2.145-6.121h.067v6.133h1.044v-8.475h-1.332l-2.315 6.588h-.085l-2.316-6.588h-1.331ZM351.076 141.351l.668-2.243h2.841l.664 2.243h1.165l-2.618-8.475h-1.267l-2.618 8.475h1.165Zm.987-3.319 1.073-3.616h.057l1.072 3.616h-2.202ZM358.964 141.351h1.097v-3.695h3.626v3.695h1.101v-8.475h-1.101v3.683h-3.626v-3.683h-1.097v8.475ZM367.527 133.977h2.266v7.374h1.093v-7.374h2.27v-1.101h-5.629v1.101ZM376.414 141.467h.497c1.137 0 1.513-.74 1.833-1.585l2.514-7.006h-1.15l-1.698 4.9-1.907-4.9h-1.165l2.557 6.361-.103.302c-.156.443-.398.803-.941.803h-.437v1.125ZM383.796 141.351h1.097v-2.979h1.492c1.686 0 2.521-1.188 2.521-2.752 0-1.56-.827-2.744-2.518-2.744h-2.592v8.475Zm1.097-4.063v-3.315h1.378c1.087 0 1.531.687 1.531 1.647s-.444 1.668-1.517 1.668h-1.392ZM398.01 137.114c0-2.711-1.392-4.354-3.274-4.354-1.889 0-3.278 1.643-3.278 4.354 0 2.706 1.389 4.353 3.278 4.353 1.882 0 3.274-1.643 3.274-4.353Zm-1.087 0c0 2.065-.937 3.186-2.187 3.186-1.254 0-2.188-1.121-2.188-3.186s.934-3.187 2.188-3.187c1.25 0 2.187 1.122 2.187 3.187ZM400.878 141.351h2.788c1.69 0 2.453-.98 2.453-2.28 0-1.312-.788-2.052-1.509-2.098v-.083c.668-.198 1.225-.728 1.225-1.787 0-1.254-.745-2.227-2.294-2.227h-2.663v8.475Zm1.097-1.096v-2.715h1.623c.881 0 1.431.662 1.431 1.469 0 .712-.415 1.246-1.47 1.246h-1.584Zm0-3.712v-2.578h1.499c.87 0 1.285.533 1.285 1.237 0 .819-.575 1.341-1.314 1.341h-1.47ZM415.238 137.114c0-2.711-1.392-4.354-3.274-4.354-1.889 0-3.277 1.643-3.277 4.354 0 2.706 1.388 4.353 3.277 4.353 1.882 0 3.274-1.643 3.274-4.353Zm-1.086 0c0 2.065-.938 3.186-2.188 3.186-1.253 0-2.187-1.121-2.187-3.186s.934-3.187 2.187-3.187c1.25 0 2.188 1.122 2.188 3.187ZM396.62 173.985h1.338l-3-4.643 3.018-3.833h-1.36l-2.83 3.58h-.377v-3.58h-1.097v8.476h1.097v-3.799h.753l2.458 3.799ZM406.526 169.747c0-2.711-1.392-4.353-3.274-4.353-1.889 0-3.278 1.642-3.278 4.353 0 2.707 1.389 4.354 3.278 4.354 1.882 0 3.274-1.643 3.274-4.354Zm-1.087 0c0 2.065-.937 3.187-2.187 3.187-1.254 0-2.188-1.122-2.188-3.187 0-2.065.934-3.186 2.188-3.186 1.25 0 2.187 1.121 2.187 3.186ZM408.733 166.61h2.265v7.375h1.094v-7.375h2.269v-1.101h-5.628v1.101ZM417.105 173.985h4.602v-1.101h-3.505v-2.595h3.225v-1.096h-3.225v-2.583h3.463v-1.101h-4.56v8.476ZM424.08 173.985h.312c1.655 0 2.053-1.432 2.149-4.155l.114-3.236h2.482v7.391h1.083v-8.476h-4.599l-.124 3.981c-.078 2.454-.334 3.353-1.204 3.377l-.213.009v1.109ZM434.426 168.928v-3.419h-1.101v8.476h2.724c1.619 0 2.546-1.051 2.542-2.57.004-1.515-.923-2.487-2.542-2.487h-1.623Zm0 1.076h1.623c.941 0 1.459.629 1.459 1.394 0 .787-.518 1.511-1.459 1.511h-1.623v-2.905ZM441.429 173.985h1.098v-3.696h3.625v3.696h1.101v-8.476h-1.101v3.684h-3.625v-3.684h-1.098v8.476ZM450.351 165.509v8.476h1.009l3.696-6.216h.068v6.216h1.097v-8.476h-1.016l-3.7 6.224h-.067v-6.224h-1.087ZM459.467 165.509v2.798c-.003 1.891.98 2.636 2.571 2.636.7 0 1.304-.103 1.826-.277v3.319h1.086v-8.476h-1.086v4.064a6.43 6.43 0 0 1-1.826.273c-.948 0-1.488-.372-1.488-1.539v-2.798h-1.083ZM471.265 169.213h-3.225v1.072h3.225v-1.072ZM476.723 165.509H475.7c-.039.232-.593 1.304-1.655 1.304v1.051c.824 0 1.396-.381 1.516-.629h.061v6.75h1.101v-8.476ZM528.336 210.955h-4.535v8.475h1.097v-7.374h3.438v-1.101ZM530.522 219.43h.312c1.655 0 2.053-1.432 2.149-4.155l.113-3.236h2.483v7.391h1.083v-8.475h-4.599l-.124 3.981c-.078 2.454-.334 3.352-1.204 3.377l-.213.008v1.109ZM540.374 219.43l.668-2.243h2.841l.664 2.243h1.164l-2.617-8.475h-1.267l-2.618 8.475h1.165Zm.987-3.319 1.073-3.617h.057l1.072 3.617h-2.202ZM550.694 219.546c1.485 0 2.575-1.034 2.571-2.441.004-1.072-.554-1.842-1.52-2.016v-.066c.76-.228 1.254-.923 1.25-1.875.004-1.245-.873-2.309-2.272-2.309-1.336 0-2.408.94-2.444 2.318h1.062c.025-.778.654-1.25 1.367-1.25.743 0 1.229.525 1.226 1.308.003.819-.561 1.357-1.368 1.357h-.614v1.043h.614c1.009 0 1.591.596 1.591 1.448 0 .824-.614 1.382-1.47 1.382-.788 0-1.403-.471-1.445-1.225h-1.115c.046 1.383 1.097 2.326 2.567 2.326ZM562.525 215.193c0-2.711-1.393-4.354-3.275-4.354-1.889 0-3.277 1.643-3.277 4.354 0 2.706 1.388 4.353 3.277 4.353 1.882 0 3.275-1.643 3.275-4.353Zm-1.087 0c0 2.065-.938 3.186-2.188 3.186-1.253 0-2.187-1.121-2.187-3.186s.934-3.187 2.187-3.187c1.25 0 2.188 1.122 2.188 3.187ZM565.393 219.43h2.787c1.691 0 2.454-.981 2.454-2.28 0-1.312-.788-2.053-1.509-2.098v-.083c.667-.198 1.225-.728 1.225-1.788 0-1.254-.746-2.226-2.294-2.226h-2.663v8.475Zm1.097-1.096v-2.715h1.623c.88 0 1.431.662 1.431 1.469 0 .712-.416 1.246-1.47 1.246h-1.584Zm0-3.712v-2.579h1.498c.87 0 1.286.534 1.286 1.238 0 .819-.575 1.341-1.314 1.341h-1.47ZM531.567 135.817h-5.611v8.476h1.094v-7.383h3.423v7.383h1.094v-8.476ZM534.745 144.293h4.602v-1.101h-3.505v-2.595h3.224V139.5h-3.224v-2.582h3.462v-1.101h-4.559v8.476ZM542.27 144.293h1.097v-2.98h1.492c1.687 0 2.521-1.188 2.521-2.752 0-1.56-.827-2.744-2.518-2.744h-2.592v8.476Zm1.097-4.064v-3.315h1.378c1.087 0 1.531.687 1.531 1.647s-.444 1.668-1.517 1.668h-1.392ZM550.167 135.817v8.476h1.044v-6.137h.067l2.145 6.124h.867l2.144-6.12h.068v6.133h1.044v-8.476h-1.332l-2.315 6.589h-.085l-2.316-6.589h-1.331ZM561.935 139.236v-3.419h-1.101v8.476h2.724c1.619 0 2.546-1.051 2.542-2.57.004-1.515-.923-2.487-2.542-2.487h-1.623Zm0 1.076h1.623c.941 0 1.459.629 1.459 1.394 0 .786-.518 1.511-1.459 1.511h-1.623v-2.905ZM598.441 180.592h2.266v7.374h1.094v-7.374h2.269v-1.101h-5.629v1.101ZM607.911 179.491h-1.097v8.475h1.097v-3.6h1.275c.199 2.326 1.513 3.716 3.249 3.716 1.882 0 3.274-1.643 3.274-4.353 0-2.711-1.392-4.354-3.274-4.354-1.786 0-3.125 1.469-3.267 3.919h-1.257v-3.803Zm6.712 4.238c0 2.065-.938 3.186-2.188 3.186-1.253 0-2.187-1.121-2.187-3.186 0-2.066.934-3.187 2.187-3.187 1.25 0 2.188 1.121 2.188 3.187ZM618.392 179.491v8.475h1.044v-6.137h.067l2.145 6.125h.867l2.145-6.121h.067v6.133h1.044v-8.475h-1.332l-2.315 6.588h-.085l-2.315-6.588h-1.332ZM629.052 187.966h4.602v-1.101h-3.505v-2.594h3.225v-1.097h-3.225v-2.582h3.463v-1.101h-4.56v8.475ZM636.577 187.966h1.098v-3.695h3.625v3.695h1.101v-8.475H641.3v3.683h-3.625v-3.683h-1.098v8.475ZM646.607 182.909v-3.418h-1.101v8.475h2.724c1.619 0 2.546-1.051 2.543-2.57.003-1.514-.924-2.487-2.543-2.487h-1.623Zm0 1.076h1.623c.941 0 1.46.629 1.46 1.395 0 .786-.519 1.51-1.46 1.51h-1.623v-2.905ZM697.456 209.364c0-2.71-1.392-4.353-3.274-4.353-1.889 0-3.278 1.643-3.278 4.353 0 2.707 1.389 4.354 3.278 4.354 1.882 0 3.274-1.643 3.274-4.354Zm-1.087 0c0 2.065-.937 3.187-2.187 3.187-1.254 0-2.188-1.122-2.188-3.187 0-2.065.934-3.186 2.188-3.186 1.25 0 2.187 1.121 2.187 3.186ZM700.324 205.127v8.475h1.044v-6.137h.068l2.145 6.124h.866l2.145-6.12h.067v6.133h1.044v-8.475h-1.331l-2.316 6.588h-.085l-2.315-6.588h-1.332ZM717.025 207.883c-.249-1.813-1.467-2.872-3.004-2.872-1.883 0-3.271 1.643-3.271 4.353 0 2.711 1.381 4.354 3.271 4.354 1.598 0 2.766-1.167 3.004-2.843l-1.108-.004c-.188 1.084-.97 1.68-1.889 1.68-1.247 0-2.188-1.113-2.188-3.187 0-2.056.938-3.186 2.191-3.186.927 0 1.705.608 1.886 1.705h1.108ZM724.145 213.602h1.339l-3.001-4.643 3.019-3.832h-1.36l-2.83 3.579h-.377v-3.579h-1.097v8.475h1.097v-3.799h.753l2.457 3.799ZM805.381 121.541h1.339l-3.001-4.643 3.018-3.832h-1.36l-2.83 3.58h-.376v-3.58h-1.098v8.475h1.098v-3.799h.752l2.458 3.799ZM809.331 121.541h1.097v-2.979h1.492c1.687 0 2.521-1.188 2.521-2.752 0-1.56-.827-2.744-2.518-2.744h-2.592v8.475Zm1.097-4.063v-3.315h1.378c1.087 0 1.531.687 1.531 1.647s-.444 1.668-1.517 1.668h-1.392ZM817.07 121.541l.668-2.243h2.841l.664 2.243h1.165l-2.617-8.475h-1.268l-2.617 8.475h1.164Zm.988-3.319 1.072-3.616h.057l1.072 3.616h-2.201ZM830.657 115.822c-.249-1.812-1.467-2.872-3.005-2.872-1.882 0-3.27 1.643-3.27 4.354 0 2.71 1.381 4.353 3.27 4.353 1.598 0 2.767-1.167 3.005-2.843l-1.108-.004c-.188 1.084-.97 1.68-1.889 1.68-1.247 0-2.188-1.113-2.188-3.186 0-2.057.938-3.187 2.191-3.187.927 0 1.705.609 1.886 1.705h1.108ZM833.47 121.541h1.097v-3.695h3.626v3.695h1.101v-8.475h-1.101v3.683h-3.626v-3.683h-1.097v8.475ZM848.709 117.304c0-2.711-1.392-4.354-3.274-4.354-1.889 0-3.278 1.643-3.278 4.354 0 2.706 1.389 4.353 3.278 4.353 1.882 0 3.274-1.643 3.274-4.353Zm-1.087 0c0 2.065-.937 3.186-2.187 3.186-1.254 0-2.188-1.121-2.188-3.186s.934-3.187 2.188-3.187c1.25 0 2.187 1.122 2.187 3.187ZM856.428 121.541v-8.475h-2.592c-1.687 0-2.518 1.097-2.518 2.657 0 1.138.444 2.003 1.335 2.388l-1.612 3.43h1.25l1.477-3.207h1.563v3.207h1.097Zm-1.097-4.308h-1.392c-1.069 0-1.517-.554-1.517-1.51 0-.96.448-1.56 1.531-1.56h1.378v3.07ZM859.522 121.541h1.098v-2.979h1.491c1.687 0 2.522-1.188 2.522-2.752 0-1.56-.828-2.744-2.518-2.744h-2.593v8.475Zm1.098-4.063v-3.315h1.378c1.086 0 1.53.687 1.53 1.647s-.444 1.668-1.516 1.668h-1.392ZM873.459 115.822c-.248-1.812-1.466-2.872-3.004-2.872-1.882 0-3.27 1.643-3.27 4.354 0 2.71 1.381 4.353 3.27 4.353 1.598 0 2.767-1.167 3.004-2.843l-1.108-.004c-.188 1.084-.969 1.68-1.889 1.68-1.246 0-2.187-1.113-2.187-3.186 0-2.057.937-3.187 2.191-3.187.927 0 1.704.609 1.885 1.705h1.108ZM880.58 121.541h1.339l-3.001-4.643 3.019-3.832h-1.361l-2.83 3.58h-.376v-3.58h-1.098v8.475h1.098v-3.799h.753l2.457 3.799ZM875.895 188.082h.497c1.136 0 1.513-.741 1.832-1.585l2.515-7.006h-1.151l-1.697 4.9-1.907-4.9h-1.165l2.557 6.36-.103.303c-.157.442-.398.802-.941.802h-.437v1.126ZM882.726 187.966h.312c1.655 0 2.053-1.432 2.149-4.155l.114-3.236h2.482v7.391h1.083v-8.475h-4.599l-.124 3.981c-.078 2.454-.334 3.352-1.204 3.377l-.213.008v1.109ZM892.578 187.966l.668-2.243h2.841l.664 2.243h1.165l-2.618-8.475h-1.267l-2.618 8.475h1.165Zm.987-3.319 1.073-3.617h.057l1.072 3.617h-2.202ZM900.466 187.966h1.097v-3.695h3.626v3.695h1.101v-8.475h-1.101v3.683h-3.626v-3.683h-1.097v8.475ZM912.516 183.195h-3.224v1.071h3.224v-1.071ZM915.397 188.082h.497c1.136 0 1.513-.741 1.832-1.585l2.515-7.006h-1.151l-1.697 4.9-1.907-4.9h-1.165l2.557 6.36-.103.303c-.157.442-.398.802-.941.802h-.437v1.126ZM922.228 190.015h1.051v-2.049h4.883v2.036h1.051v-3.12h-.824v-7.391h-4.485l-.17 3.58c-.11 2.358-.54 3.331-1.027 3.811h-.479v3.133Zm1.772-3.133c.415-.774.696-2.02.785-3.811l.113-2.479h2.44v6.29H924ZM931.684 185.276c.139 1.606 1.041 2.806 2.795 2.806s2.876-1.527 2.876-3.902v-.882c0-2.375-1.136-3.923-2.936-3.923-1.712 0-2.596 1.217-2.738 2.855h1.118c.114-1.1.558-1.754 1.62-1.754 1.168 0 1.821 1.101 1.825 2.814h-2.681v1.084h2.677c-.046 1.494-.607 2.624-1.761 2.624-1.09 0-1.555-.604-1.68-1.722h-1.115Z" fill="#fff"/><path d="M106.746 39.193c0 2.248-1.564 4.07-3.493 4.07-1.929 0-3.493-1.822-3.493-4.07s1.564-4.07 3.493-4.07c1.929 0 3.493 1.822 3.493 4.07Z" fill="#272722"/><path fill-rule="evenodd" clip-rule="evenodd" d="M103.253 42.098c1.376 0 2.493-1.3 2.493-2.905 0-1.604-1.117-2.905-2.493-2.905-1.377 0-2.493 1.3-2.493 2.905 0 1.605 1.116 2.905 2.493 2.905Zm0 1.166c1.929 0 3.493-1.823 3.493-4.07 0-2.249-1.564-4.071-3.493-4.071-1.929 0-3.493 1.822-3.493 4.07s1.564 4.07 3.493 4.07Z" fill="#fff"/><path d="M20.985 133.77c0 2.248-1.564 4.071-3.493 4.071-1.93 0-3.493-1.823-3.493-4.071 0-2.248 1.564-4.07 3.493-4.07 1.929 0 3.493 1.822 3.493 4.07Z" fill="#131313"/><path fill-rule="evenodd" clip-rule="evenodd" d="M17.492 136.676c1.377 0 2.493-1.301 2.493-2.906 0-1.604-1.116-2.905-2.493-2.905-1.377 0-2.493 1.301-2.493 2.905 0 1.605 1.116 2.906 2.493 2.906Zm0 1.165c1.929 0 3.493-1.823 3.493-4.071 0-2.248-1.564-4.07-3.493-4.07-1.93 0-3.493 1.822-3.493 4.07s1.564 4.071 3.493 4.071Z" fill="#fff"/><path d="M215.023 181.659c0 2.248-1.564 4.07-3.493 4.07-1.929 0-3.493-1.822-3.493-4.07s1.564-4.071 3.493-4.071c1.929 0 3.493 1.823 3.493 4.071Z" fill="#4D5648"/><path fill-rule="evenodd" clip-rule="evenodd" d="M211.53 184.564c1.377 0 2.493-1.301 2.493-2.905 0-1.605-1.116-2.905-2.493-2.905-1.377 0-2.493 1.3-2.493 2.905 0 1.604 1.116 2.905 2.493 2.905Zm0 1.165c1.929 0 3.493-1.822 3.493-4.07s-1.564-4.071-3.493-4.071c-1.929 0-3.493 1.823-3.493 4.071 0 2.248 1.564 4.07 3.493 4.07Z" fill="#fff"/><path d="M247.334 207.102c0 2.248-1.563 4.07-3.492 4.07-1.93 0-3.493-1.822-3.493-4.07s1.563-4.071 3.493-4.071c1.929 0 3.492 1.823 3.492 4.071Z" fill="#47443E"/><path fill-rule="evenodd" clip-rule="evenodd" d="M243.842 210.007c1.376 0 2.492-1.301 2.492-2.905 0-1.604-1.116-2.905-2.492-2.905-1.377 0-2.493 1.301-2.493 2.905 0 1.604 1.116 2.905 2.493 2.905Zm0 1.165c1.929 0 3.492-1.822 3.492-4.07s-1.563-4.071-3.492-4.071c-1.93 0-3.493 1.823-3.493 4.071 0 2.248 1.563 4.07 3.493 4.07Z" fill="#fff"/><path d="M335.53 148.079c0 2.249-1.564 4.071-3.493 4.071-1.929 0-3.493-1.822-3.493-4.071 0-2.248 1.564-4.07 3.493-4.07 1.929 0 3.493 1.822 3.493 4.07Z" fill="#93A47C"/><path fill-rule="evenodd" clip-rule="evenodd" d="M332.037 150.985c1.377 0 2.493-1.301 2.493-2.906 0-1.604-1.116-2.905-2.493-2.905-1.376 0-2.493 1.301-2.493 2.905 0 1.605 1.117 2.906 2.493 2.906Zm0 1.165c1.929 0 3.493-1.822 3.493-4.071 0-2.248-1.564-4.07-3.493-4.07-1.929 0-3.493 1.822-3.493 4.07 0 2.249 1.564 4.071 3.493 4.071Z" fill="#fff"/><path d="M413.249 187.767c0 2.248-1.564 4.07-3.493 4.07-1.929 0-3.493-1.822-3.493-4.07s1.564-4.071 3.493-4.071c1.929 0 3.493 1.823 3.493 4.071Z" fill="#738F8C"/><path fill-rule="evenodd" clip-rule="evenodd" d="M409.756 190.672c1.377 0 2.493-1.301 2.493-2.905 0-1.605-1.116-2.905-2.493-2.905-1.377 0-2.493 1.3-2.493 2.905 0 1.604 1.116 2.905 2.493 2.905Zm0 1.165c1.929 0 3.493-1.822 3.493-4.07s-1.564-4.071-3.493-4.071c-1.929 0-3.493 1.823-3.493 4.071 0 2.248 1.564 4.07 3.493 4.07Z" fill="#fff"/><path d="M515.415 215.244c0 2.248-1.564 4.07-3.493 4.07-1.929 0-3.493-1.822-3.493-4.07s1.564-4.071 3.493-4.071c1.929 0 3.493 1.823 3.493 4.071Z" fill="#789186"/><path fill-rule="evenodd" clip-rule="evenodd" d="M511.922 218.149c1.376 0 2.493-1.301 2.493-2.905 0-1.605-1.117-2.906-2.493-2.906-1.377 0-2.493 1.301-2.493 2.906 0 1.604 1.116 2.905 2.493 2.905Zm0 1.165c1.929 0 3.493-1.822 3.493-4.07s-1.564-4.071-3.493-4.071c-1.929 0-3.493 1.823-3.493 4.071 0 2.248 1.564 4.07 3.493 4.07Z" fill="#fff"/><path d="M548.597 155.206c0 2.248-1.564 4.07-3.493 4.07-1.929 0-3.493-1.822-3.493-4.07s1.564-4.071 3.493-4.071c1.929 0 3.493 1.823 3.493 4.071Z" fill="#8CBABB"/><path fill-rule="evenodd" clip-rule="evenodd" d="M545.104 158.111c1.377 0 2.493-1.301 2.493-2.905 0-1.605-1.116-2.905-2.493-2.905-1.377 0-2.493 1.3-2.493 2.905 0 1.604 1.116 2.905 2.493 2.905Zm0 1.165c1.929 0 3.493-1.822 3.493-4.07s-1.564-4.071-3.493-4.071c-1.929 0-3.493 1.823-3.493 4.071 0 2.248 1.564 4.07 3.493 4.07Z" fill="#fff"/><path d="M605.355 200.998c0 2.248-1.564 4.07-3.493 4.07-1.929 0-3.493-1.822-3.493-4.07s1.564-4.071 3.493-4.071c1.929 0 3.493 1.823 3.493 4.071Z" fill="#414847"/><path fill-rule="evenodd" clip-rule="evenodd" d="M601.862 203.903c1.377 0 2.493-1.301 2.493-2.905 0-1.605-1.116-2.905-2.493-2.905-1.377 0-2.493 1.3-2.493 2.905 0 1.604 1.116 2.905 2.493 2.905Zm0 1.165c1.929 0 3.493-1.822 3.493-4.07s-1.564-4.071-3.493-4.071c-1.929 0-3.493 1.823-3.493 4.071 0 2.248 1.564 4.07 3.493 4.07Z" fill="#fff"/><path d="M711.02 185.731c0 2.248-1.564 4.07-3.493 4.07-1.929 0-3.493-1.822-3.493-4.07s1.564-4.071 3.493-4.071c1.929 0 3.493 1.823 3.493 4.071Z" fill="#577379"/><path fill-rule="evenodd" clip-rule="evenodd" d="M707.527 188.636c1.376 0 2.493-1.301 2.493-2.905 0-1.605-1.117-2.905-2.493-2.905-1.377 0-2.493 1.3-2.493 2.905 0 1.604 1.116 2.905 2.493 2.905Zm0 1.165c1.929 0 3.493-1.822 3.493-4.07s-1.564-4.071-3.493-4.071c-1.929 0-3.493 1.823-3.493 4.071 0 2.248 1.564 4.07 3.493 4.07Z" fill="#fff"/><path d="M845.95 130.78c0 2.248-1.564 4.07-3.493 4.07-1.929 0-3.493-1.822-3.493-4.07s1.564-4.071 3.493-4.071c1.929 0 3.493 1.823 3.493 4.071Z" fill="#3E403A"/><path fill-rule="evenodd" clip-rule="evenodd" d="M842.457 133.685c1.377 0 2.493-1.301 2.493-2.905 0-1.605-1.116-2.905-2.493-2.905-1.377 0-2.493 1.3-2.493 2.905 0 1.604 1.116 2.905 2.493 2.905Zm0 1.165c1.929 0 3.493-1.822 3.493-4.07s-1.564-4.071-3.493-4.071c-1.929 0-3.493 1.823-3.493 4.071 0 2.248 1.564 4.07 3.493 4.07Z" fill="#fff"/><path d="M908.988 162.902c0 2.249-1.564 4.071-3.493 4.071-1.929 0-3.493-1.822-3.493-4.071 0-2.248 1.564-4.07 3.493-4.07 1.929 0 3.493 1.822 3.493 4.07Z" fill="#181A19"/><path fill-rule="evenodd" clip-rule="evenodd" d="M905.495 165.808c1.377 0 2.493-1.301 2.493-2.906 0-1.604-1.116-2.905-2.493-2.905-1.377 0-2.493 1.301-2.493 2.905 0 1.605 1.116 2.906 2.493 2.906Zm0 1.165c1.929 0 3.493-1.822 3.493-4.071 0-2.248-1.564-4.07-3.493-4.07-1.929 0-3.493 1.822-3.493 4.07 0 2.249 1.564 4.071 3.493 4.071Z" fill="#fff"/></svg>